<svg width="215" height="19" viewBox="0 0 215 19" fill="none" xmlns="http://www.w3.org/2000/svg">
<path d="M12.3183 11.064H8.14225V15.144H5.04625V11.064H0.89425V8.136H5.04625V4.056H8.14225V8.136H12.3183V11.064ZM22.0887 8.04C23.5607 8.28 24.6887 8.832 25.4727 9.696C26.2567 10.544 26.6487 11.6 26.6487 12.864C26.6487 13.84 26.3927 14.744 25.8807 15.576C25.3687 16.392 24.5847 17.048 23.5287 17.544C22.4887 18.04 21.2087 18.288 19.6887 18.288C18.5047 18.288 17.3367 18.136 16.1847 17.832C15.0487 17.512 14.0807 17.064 13.2807 16.488L14.7927 13.512C15.4327 13.992 16.1687 14.368 17.0007 14.64C17.8487 14.896 18.7127 15.024 19.5927 15.024C20.5687 15.024 21.3367 14.84 21.8967 14.472C22.4567 14.088 22.7367 13.552 22.7367 12.864C22.7367 11.488 21.6887 10.8 19.5927 10.8H17.8167V8.232L21.2727 4.32H14.1207V1.2H25.8807V3.72L22.0887 8.04ZM41.3849 1.2V3.72L35.1449 18H30.9209L36.9449 4.368H31.3769V7.104H27.9209V1.2H41.3849ZM48.4773 7.512C50.8453 7.512 52.5893 7.984 53.7093 8.928C54.8453 9.872 55.4133 11.136 55.4133 12.72C55.4133 13.744 55.1573 14.68 54.6453 15.528C54.1333 16.36 53.3493 17.032 52.2933 17.544C51.2533 18.04 49.9653 18.288 48.4293 18.288C47.2453 18.288 46.0773 18.136 44.9253 17.832C43.7893 17.512 42.8213 17.064 42.0213 16.488L43.5573 13.512C44.1973 13.992 44.9333 14.368 45.7653 14.64C46.5973 14.896 47.4533 15.024 48.3333 15.024C49.3093 15.024 50.0773 14.832 50.6373 14.448C51.1973 14.064 51.4773 13.528 51.4773 12.84C51.4773 12.12 51.1813 11.576 50.5893 11.208C50.0133 10.84 49.0053 10.656 47.5653 10.656H43.2693L44.1333 1.2H54.3813V4.32H47.3733L47.1093 7.512H48.4773ZM76.3396 14.832V18H63.6436V15.48L70.1236 9.36C70.8116 8.704 71.2756 8.144 71.5156 7.68C71.7556 7.2 71.8756 6.728 71.8756 6.264C71.8756 5.592 71.6436 5.08 71.1796 4.728C70.7316 4.36 70.0676 4.176 69.1876 4.176C68.4516 4.176 67.7876 4.32 67.1956 4.608C66.6036 4.88 66.1076 5.296 65.7076 5.856L62.8756 4.032C63.5316 3.056 64.4356 2.296 65.5876 1.752C66.7396 1.192 68.0596 0.912 69.5476 0.912C70.7956 0.912 71.8836 1.12 72.8116 1.536C73.7556 1.936 74.4836 2.512 74.9956 3.264C75.5236 4 75.7876 4.872 75.7876 5.88C75.7876 6.792 75.5956 7.648 75.2116 8.448C74.8276 9.248 74.0836 10.16 72.9796 11.184L69.1156 14.832H76.3396ZM83.8478 0.912C86.1998 0.912 88.0398 1.632 89.3678 3.072C90.6958 4.496 91.3598 6.552 91.3598 9.24C91.3598 11.144 90.9998 12.776 90.2798 14.136C89.5758 15.496 88.5758 16.528 87.2798 17.232C85.9838 17.936 84.4878 18.288 82.7918 18.288C81.8958 18.288 81.0398 18.192 80.2238 18C79.4078 17.792 78.7118 17.504 78.1358 17.136L79.5758 14.28C80.3918 14.84 81.4398 15.12 82.7198 15.12C84.1438 15.12 85.2718 14.704 86.1038 13.872C86.9358 13.024 87.3838 11.808 87.4478 10.224C86.4398 11.232 85.0478 11.736 83.2718 11.736C82.1998 11.736 81.2238 11.52 80.3438 11.088C79.4638 10.656 78.7678 10.048 78.2558 9.264C77.7438 8.464 77.4878 7.544 77.4878 6.504C77.4878 5.384 77.7678 4.4 78.3278 3.552C78.8878 2.704 79.6478 2.056 80.6078 1.608C81.5838 1.144 82.6638 0.912 83.8478 0.912ZM84.1358 8.832C84.9838 8.832 85.6718 8.6 86.1998 8.136C86.7438 7.656 87.0158 7.048 87.0158 6.312C87.0158 5.576 86.7518 4.976 86.2238 4.512C85.7118 4.048 84.9998 3.816 84.0878 3.816C83.2558 3.816 82.5758 4.04 82.0478 4.488C81.5358 4.936 81.2798 5.544 81.2798 6.312C81.2798 7.08 81.5358 7.696 82.0478 8.16C82.5758 8.608 83.2718 8.832 84.1358 8.832ZM107.87 8.04C109.342 8.28 110.47 8.832 111.254 9.696C112.038 10.544 112.43 11.6 112.43 12.864C112.43 13.84 112.174 14.744 111.662 15.576C111.15 16.392 110.366 17.048 109.31 17.544C108.27 18.04 106.99 18.288 105.47 18.288C104.286 18.288 103.118 18.136 101.966 17.832C100.83 17.512 99.8619 17.064 99.0619 16.488L100.574 13.512C101.214 13.992 101.95 14.368 102.782 14.64C103.63 14.896 104.494 15.024 105.374 15.024C106.35 15.024 107.118 14.84 107.678 14.472C108.238 14.088 108.518 13.552 108.518 12.864C108.518 11.488 107.47 10.8 105.374 10.8H103.598V8.232L107.054 4.32H99.9019V1.2H111.662V3.72L107.87 8.04ZM119.751 7.512C122.119 7.512 123.863 7.984 124.983 8.928C126.119 9.872 126.687 11.136 126.687 12.72C126.687 13.744 126.431 14.68 125.919 15.528C125.407 16.36 124.623 17.032 123.567 17.544C122.527 18.04 121.239 18.288 119.703 18.288C118.519 18.288 117.351 18.136 116.199 17.832C115.063 17.512 114.095 17.064 113.295 16.488L114.831 13.512C115.471 13.992 116.207 14.368 117.039 14.64C117.871 14.896 118.727 15.024 119.607 15.024C120.583 15.024 121.351 14.832 121.911 14.448C122.471 14.064 122.751 13.528 122.751 12.84C122.751 12.12 122.455 11.576 121.863 11.208C121.287 10.84 120.279 10.656 118.839 10.656H114.543L115.407 1.2H125.655V4.32H118.647L118.383 7.512H119.751ZM134.744 1.2V18H130.856V4.32H127.496V1.2H134.744ZM137.975 9.744H144.767V12.744H137.975V9.744ZM159.097 14.832V18H146.401V15.48L152.881 9.36C153.569 8.704 154.033 8.144 154.273 7.68C154.513 7.2 154.633 6.728 154.633 6.264C154.633 5.592 154.401 5.08 153.937 4.728C153.489 4.36 152.825 4.176 151.945 4.176C151.209 4.176 150.545 4.32 149.953 4.608C149.361 4.88 148.865 5.296 148.465 5.856L145.633 4.032C146.289 3.056 147.193 2.296 148.345 1.752C149.497 1.192 150.817 0.912 152.305 0.912C153.553 0.912 154.641 1.12 155.569 1.536C156.513 1.936 157.241 2.512 157.753 3.264C158.281 4 158.545 4.872 158.545 5.88C158.545 6.792 158.353 7.648 157.969 8.448C157.585 9.248 156.841 10.16 155.737 11.184L151.873 14.832H159.097ZM173.807 1.2V3.72L167.567 18H163.343L169.367 4.368H163.799V7.104H160.343V1.2H173.807ZM174.654 9.744H181.446V12.744H174.654V9.744ZM199.078 14.472H196.342V18H192.55V14.472H183.502V11.856L191.422 1.2H195.502L188.158 11.304H192.67V8.16H196.342V11.304H199.078V14.472ZM207.441 18.288C206.049 18.288 204.809 17.944 203.721 17.256C202.633 16.568 201.777 15.576 201.153 14.28C200.545 12.968 200.241 11.408 200.241 9.6C200.241 7.792 200.545 6.24 201.153 4.944C201.777 3.632 202.633 2.632 203.721 1.944C204.809 1.256 206.049 0.912 207.441 0.912C208.833 0.912 210.073 1.256 211.161 1.944C212.249 2.632 213.097 3.632 213.705 4.944C214.329 6.24 214.641 7.792 214.641 9.6C214.641 11.408 214.329 12.968 213.705 14.28C213.097 15.576 212.249 16.568 211.161 17.256C210.073 17.944 208.833 18.288 207.441 18.288ZM207.441 15C208.465 15 209.265 14.56 209.841 13.68C210.433 12.8 210.729 11.44 210.729 9.6C210.729 7.76 210.433 6.4 209.841 5.52C209.265 4.64 208.465 4.2 207.441 4.2C206.433 4.2 205.633 4.64 205.041 5.52C204.465 6.4 204.177 7.76 204.177 9.6C204.177 11.44 204.465 12.8 205.041 13.68C205.633 14.56 206.433 15 207.441 15Z" fill="#041A3F"/>
</svg>
